<svg xmlns="http://www.w3.org/2000/svg" version="1.1" xmlns:xlink="http://www.w3.org/1999/xlink" xmlns:svgjs="http://svgjs.com/svgjs" width="1440" height="560" preserveAspectRatio="none" viewBox="0 0 1440 560"><g mask="url(&quot;#SvgjsMask1001&quot;)" fill="none"><rect width="1440" height="560" x="0" y="0" fill="rgba(3, 4, 94, 1)"></rect><path d="M449.06 -67.96L514.02 -30.46L514.02 44.54L449.06 82.04L384.11 44.54L384.11 -30.46zM514.02 44.54L578.97 82.04L578.97 157.04L514.02 194.54L449.06 157.04L449.06 82.04zM449.06 157.04L514.02 194.54L514.02 269.54L449.06 307.04L384.11 269.54L384.11 194.54zM578.97 -67.96L643.92 -30.46L643.92 44.54L578.97 82.04L514.02 44.54L514.02 -30.46zM708.88 -67.96L773.83 -30.46L773.83 44.54L708.88 82.04L643.92 44.54L643.92 -30.46zM708.88 157.04L773.83 194.54L773.83 269.54L708.88 307.04L643.92 269.54L643.92 194.54zM773.83 269.54L838.79 307.04L838.79 382.04L773.83 419.54L708.88 382.04L708.88 307.04zM773.83 494.54L838.79 532.04L838.79 607.04L773.83 644.54L708.88 607.04L708.88 532.04zM903.74 44.54L968.69 82.04L968.69 157.04L903.74 194.54L838.78 157.04L838.78 82.04zM903.74 269.54L968.69 307.04L968.69 382.04L903.74 419.54L838.78 382.04L838.78 307.04zM968.69 -67.96L1033.65 -30.46L1033.65 44.54L968.69 82.04L903.74 44.54L903.74 -30.46zM968.69 157.04L1033.65 194.54L1033.65 269.54L968.69 307.04L903.74 269.54L903.74 194.54zM968.69 382.04L1033.65 419.54L1033.65 494.54L968.69 532.04L903.74 494.54L903.74 419.54zM1163.55 44.54L1228.51 82.04L1228.51 157.04L1163.55 194.54L1098.6 157.04L1098.6 82.04zM1098.6 382.04L1163.55 419.54L1163.55 494.54L1098.6 532.04L1033.65 494.54L1033.65 419.54zM1163.55 494.54L1228.51 532.04L1228.51 607.04L1163.55 644.54L1098.6 607.04L1098.6 532.04zM1228.51 -67.96L1293.46 -30.46L1293.46 44.54L1228.51 82.04L1163.55 44.54L1163.55 -30.46zM1293.46 269.54L1358.41 307.04L1358.41 382.04L1293.46 419.54L1228.51 382.04L1228.51 307.04zM1423.37 44.54L1488.32 82.04L1488.32 157.04L1423.37 194.54L1358.41 157.04L1358.41 82.04zM1488.32 -67.96L1553.28 -30.46L1553.28 44.54L1488.32 82.04L1423.37 44.54L1423.37 -30.46zM1553.28 494.54L1618.23 532.04L1618.23 607.04L1553.28 644.54L1488.32 607.04L1488.32 532.04z" stroke="#03305d" stroke-width="2"></path><path d="M441.56 -67.96 a7.5 7.5 0 1 0 15 0 a7.5 7.5 0 1 0 -15 0zM506.52 -30.46 a7.5 7.5 0 1 0 15 0 a7.5 7.5 0 1 0 -15 0zM506.52 44.54 a7.5 7.5 0 1 0 15 0 a7.5 7.5 0 1 0 -15 0zM441.56 82.04 a7.5 7.5 0 1 0 15 0 a7.5 7.5 0 1 0 -15 0zM376.61 44.54 a7.5 7.5 0 1 0 15 0 a7.5 7.5 0 1 0 -15 0zM376.61 -30.46 a7.5 7.5 0 1 0 15 0 a7.5 7.5 0 1 0 -15 0zM571.47 82.04 a7.5 7.5 0 1 0 15 0 a7.5 7.5 0 1 0 -15 0zM571.47 157.04 a7.5 7.5 0 1 0 15 0 a7.5 7.5 0 1 0 -15 0zM506.52 194.54 a7.5 7.5 0 1 0 15 0 a7.5 7.5 0 1 0 -15 0zM441.56 157.04 a7.5 7.5 0 1 0 15 0 a7.5 7.5 0 1 0 -15 0zM506.52 269.54 a7.5 7.5 0 1 0 15 0 a7.5 7.5 0 1 0 -15 0zM441.56 307.04 a7.5 7.5 0 1 0 15 0 a7.5 7.5 0 1 0 -15 0zM376.61 269.54 a7.5 7.5 0 1 0 15 0 a7.5 7.5 0 1 0 -15 0zM376.61 194.54 a7.5 7.5 0 1 0 15 0 a7.5 7.5 0 1 0 -15 0zM571.47 -67.96 a7.5 7.5 0 1 0 15 0 a7.5 7.5 0 1 0 -15 0zM636.42 -30.46 a7.5 7.5 0 1 0 15 0 a7.5 7.5 0 1 0 -15 0zM636.42 44.54 a7.5 7.5 0 1 0 15 0 a7.5 7.5 0 1 0 -15 0zM701.38 -67.96 a7.5 7.5 0 1 0 15 0 a7.5 7.5 0 1 0 -15 0zM766.33 -30.46 a7.5 7.5 0 1 0 15 0 a7.5 7.5 0 1 0 -15 0zM766.33 44.54 a7.5 7.5 0 1 0 15 0 a7.5 7.5 0 1 0 -15 0zM701.38 82.04 a7.5 7.5 0 1 0 15 0 a7.5 7.5 0 1 0 -15 0zM701.38 157.04 a7.5 7.5 0 1 0 15 0 a7.5 7.5 0 1 0 -15 0zM766.33 194.54 a7.5 7.5 0 1 0 15 0 a7.5 7.5 0 1 0 -15 0zM766.33 269.54 a7.5 7.5 0 1 0 15 0 a7.5 7.5 0 1 0 -15 0zM701.38 307.04 a7.5 7.5 0 1 0 15 0 a7.5 7.5 0 1 0 -15 0zM636.42 269.54 a7.5 7.5 0 1 0 15 0 a7.5 7.5 0 1 0 -15 0zM636.42 194.54 a7.5 7.5 0 1 0 15 0 a7.5 7.5 0 1 0 -15 0zM831.29 307.04 a7.5 7.5 0 1 0 15 0 a7.5 7.5 0 1 0 -15 0zM831.29 382.04 a7.5 7.5 0 1 0 15 0 a7.5 7.5 0 1 0 -15 0zM766.33 419.54 a7.5 7.5 0 1 0 15 0 a7.5 7.5 0 1 0 -15 0zM701.38 382.04 a7.5 7.5 0 1 0 15 0 a7.5 7.5 0 1 0 -15 0zM766.33 494.54 a7.5 7.5 0 1 0 15 0 a7.5 7.5 0 1 0 -15 0zM831.29 532.04 a7.5 7.5 0 1 0 15 0 a7.5 7.5 0 1 0 -15 0zM831.29 607.04 a7.5 7.5 0 1 0 15 0 a7.5 7.5 0 1 0 -15 0zM766.33 644.54 a7.5 7.5 0 1 0 15 0 a7.5 7.5 0 1 0 -15 0zM701.38 607.04 a7.5 7.5 0 1 0 15 0 a7.5 7.5 0 1 0 -15 0zM701.38 532.04 a7.5 7.5 0 1 0 15 0 a7.5 7.5 0 1 0 -15 0zM896.24 44.54 a7.5 7.5 0 1 0 15 0 a7.5 7.5 0 1 0 -15 0zM961.19 82.04 a7.5 7.5 0 1 0 15 0 a7.5 7.5 0 1 0 -15 0zM961.19 157.04 a7.5 7.5 0 1 0 15 0 a7.5 7.5 0 1 0 -15 0zM896.24 194.54 a7.5 7.5 0 1 0 15 0 a7.5 7.5 0 1 0 -15 0zM831.28 157.04 a7.5 7.5 0 1 0 15 0 a7.5 7.5 0 1 0 -15 0zM831.28 82.04 a7.5 7.5 0 1 0 15 0 a7.5 7.5 0 1 0 -15 0zM896.24 269.54 a7.5 7.5 0 1 0 15 0 a7.5 7.5 0 1 0 -15 0zM961.19 307.04 a7.5 7.5 0 1 0 15 0 a7.5 7.5 0 1 0 -15 0zM961.19 382.04 a7.5 7.5 0 1 0 15 0 a7.5 7.5 0 1 0 -15 0zM896.24 419.54 a7.5 7.5 0 1 0 15 0 a7.5 7.5 0 1 0 -15 0zM831.28 382.04 a7.5 7.5 0 1 0 15 0 a7.5 7.5 0 1 0 -15 0zM831.28 307.04 a7.5 7.5 0 1 0 15 0 a7.5 7.5 0 1 0 -15 0zM961.19 -67.96 a7.5 7.5 0 1 0 15 0 a7.5 7.5 0 1 0 -15 0zM1026.15 -30.46 a7.5 7.5 0 1 0 15 0 a7.5 7.5 0 1 0 -15 0zM1026.15 44.54 a7.5 7.5 0 1 0 15 0 a7.5 7.5 0 1 0 -15 0zM896.24 -30.46 a7.5 7.5 0 1 0 15 0 a7.5 7.5 0 1 0 -15 0zM1026.15 194.54 a7.5 7.5 0 1 0 15 0 a7.5 7.5 0 1 0 -15 0zM1026.15 269.54 a7.5 7.5 0 1 0 15 0 a7.5 7.5 0 1 0 -15 0zM1026.15 419.54 a7.5 7.5 0 1 0 15 0 a7.5 7.5 0 1 0 -15 0zM1026.15 494.54 a7.5 7.5 0 1 0 15 0 a7.5 7.5 0 1 0 -15 0zM961.19 532.04 a7.5 7.5 0 1 0 15 0 a7.5 7.5 0 1 0 -15 0zM896.24 494.54 a7.5 7.5 0 1 0 15 0 a7.5 7.5 0 1 0 -15 0zM1156.05 44.54 a7.5 7.5 0 1 0 15 0 a7.5 7.5 0 1 0 -15 0zM1221.01 82.04 a7.5 7.5 0 1 0 15 0 a7.5 7.5 0 1 0 -15 0zM1221.01 157.04 a7.5 7.5 0 1 0 15 0 a7.5 7.5 0 1 0 -15 0zM1156.05 194.54 a7.5 7.5 0 1 0 15 0 a7.5 7.5 0 1 0 -15 0zM1091.1 157.04 a7.5 7.5 0 1 0 15 0 a7.5 7.5 0 1 0 -15 0zM1091.1 82.04 a7.5 7.5 0 1 0 15 0 a7.5 7.5 0 1 0 -15 0zM1091.1 382.04 a7.5 7.5 0 1 0 15 0 a7.5 7.5 0 1 0 -15 0zM1156.05 419.54 a7.5 7.5 0 1 0 15 0 a7.5 7.5 0 1 0 -15 0zM1156.05 494.54 a7.5 7.5 0 1 0 15 0 a7.5 7.5 0 1 0 -15 0zM1091.1 532.04 a7.5 7.5 0 1 0 15 0 a7.5 7.5 0 1 0 -15 0zM1221.01 532.04 a7.5 7.5 0 1 0 15 0 a7.5 7.5 0 1 0 -15 0zM1221.01 607.04 a7.5 7.5 0 1 0 15 0 a7.5 7.5 0 1 0 -15 0zM1156.05 644.54 a7.5 7.5 0 1 0 15 0 a7.5 7.5 0 1 0 -15 0zM1091.1 607.04 a7.5 7.5 0 1 0 15 0 a7.5 7.5 0 1 0 -15 0zM1221.01 -67.96 a7.5 7.5 0 1 0 15 0 a7.5 7.5 0 1 0 -15 0zM1285.96 -30.46 a7.5 7.5 0 1 0 15 0 a7.5 7.5 0 1 0 -15 0zM1285.96 44.54 a7.5 7.5 0 1 0 15 0 a7.5 7.5 0 1 0 -15 0zM1156.05 -30.46 a7.5 7.5 0 1 0 15 0 a7.5 7.5 0 1 0 -15 0zM1285.96 269.54 a7.5 7.5 0 1 0 15 0 a7.5 7.5 0 1 0 -15 0zM1350.91 307.04 a7.5 7.5 0 1 0 15 0 a7.5 7.5 0 1 0 -15 0zM1350.91 382.04 a7.5 7.5 0 1 0 15 0 a7.5 7.5 0 1 0 -15 0zM1285.96 419.54 a7.5 7.5 0 1 0 15 0 a7.5 7.5 0 1 0 -15 0zM1221.01 382.04 a7.5 7.5 0 1 0 15 0 a7.5 7.5 0 1 0 -15 0zM1221.01 307.04 a7.5 7.5 0 1 0 15 0 a7.5 7.5 0 1 0 -15 0zM1415.87 44.54 a7.5 7.5 0 1 0 15 0 a7.5 7.5 0 1 0 -15 0zM1480.82 82.04 a7.5 7.5 0 1 0 15 0 a7.5 7.5 0 1 0 -15 0zM1480.82 157.04 a7.5 7.5 0 1 0 15 0 a7.5 7.5 0 1 0 -15 0zM1415.87 194.54 a7.5 7.5 0 1 0 15 0 a7.5 7.5 0 1 0 -15 0zM1350.91 157.04 a7.5 7.5 0 1 0 15 0 a7.5 7.5 0 1 0 -15 0zM1350.91 82.04 a7.5 7.5 0 1 0 15 0 a7.5 7.5 0 1 0 -15 0zM1480.82 -67.96 a7.5 7.5 0 1 0 15 0 a7.5 7.5 0 1 0 -15 0zM1545.78 -30.46 a7.5 7.5 0 1 0 15 0 a7.5 7.5 0 1 0 -15 0zM1545.78 44.54 a7.5 7.5 0 1 0 15 0 a7.5 7.5 0 1 0 -15 0zM1415.87 -30.46 a7.5 7.5 0 1 0 15 0 a7.5 7.5 0 1 0 -15 0zM1545.78 494.54 a7.5 7.5 0 1 0 15 0 a7.5 7.5 0 1 0 -15 0zM1610.73 532.04 a7.5 7.5 0 1 0 15 0 a7.5 7.5 0 1 0 -15 0zM1610.73 607.04 a7.5 7.5 0 1 0 15 0 a7.5 7.5 0 1 0 -15 0zM1545.78 644.54 a7.5 7.5 0 1 0 15 0 a7.5 7.5 0 1 0 -15 0zM1480.82 607.04 a7.5 7.5 0 1 0 15 0 a7.5 7.5 0 1 0 -15 0zM1480.82 532.04 a7.5 7.5 0 1 0 15 0 a7.5 7.5 0 1 0 -15 0z" fill="#03305d"></path><path d="M12.71 142.35L56.01 167.35L56.01 217.35L12.71 242.35L-30.59 217.35L-30.59 167.35zM56.01 217.35L99.31 242.35L99.31 292.35L56.01 317.35L12.71 292.35L12.71 242.35zM56.01 367.35L99.31 392.35L99.31 442.35L56.01 467.35L12.71 442.35L12.71 392.35zM12.71 442.35L56.01 467.35L56.01 517.35L12.71 542.35L-30.59 517.35L-30.59 467.35zM142.62 367.35L185.92 392.35L185.92 442.35L142.62 467.35L99.31 442.35L99.31 392.35zM99.31 442.35L142.62 467.35L142.62 517.35L99.31 542.35L56.01 517.35L56.01 467.35zM142.62 517.35L185.92 542.35L185.92 592.35L142.62 617.35L99.31 592.35L99.31 542.35zM185.92 -7.65L229.22 17.35L229.22 67.35L185.92 92.35L142.62 67.35L142.62 17.35zM185.92 142.35L229.22 167.35L229.22 217.35L185.92 242.35L142.62 217.35L142.62 167.35zM229.22 367.35L272.52 392.35L272.52 442.35L229.22 467.35L185.92 442.35L185.92 392.35zM185.92 442.35L229.22 467.35L229.22 517.35L185.92 542.35L142.62 517.35L142.62 467.35zM315.83 517.35L359.13 542.35L359.13 592.35L315.83 617.35L272.52 592.35L272.52 542.35zM359.13 -7.65L402.43 17.35L402.43 67.35L359.13 92.35L315.83 67.35L315.83 17.35zM402.43 367.35L445.74 392.35L445.74 442.35L402.43 467.35L359.13 442.35L359.13 392.35zM402.43 517.35L445.74 542.35L445.74 592.35L402.43 617.35L359.13 592.35L359.13 542.35zM445.74 142.35L489.04 167.35L489.04 217.35L445.74 242.35L402.43 217.35L402.43 167.35zM489.04 217.35L532.34 242.35L532.34 292.35L489.04 317.35L445.74 292.35L445.74 242.35zM532.34 -7.65L575.64 17.35L575.64 67.35L532.34 92.35L489.04 67.35L489.04 17.35zM532.34 142.35L575.64 167.35L575.64 217.35L532.34 242.35L489.04 217.35L489.04 167.35zM575.64 217.35L618.95 242.35L618.95 292.35L575.64 317.35L532.34 292.35L532.34 242.35zM532.34 442.35L575.64 467.35L575.64 517.35L532.34 542.35L489.04 517.35L489.04 467.35zM662.25 67.35L705.55 92.35L705.55 142.35L662.25 167.35L618.95 142.35L618.95 92.35zM618.95 292.35L662.25 317.35L662.25 367.35L618.95 392.35L575.64 367.35L575.64 317.35zM748.85 67.35L792.16 92.35L792.16 142.35L748.85 167.35L705.55 142.35L705.55 92.35zM705.55 142.35L748.85 167.35L748.85 217.35L705.55 242.35L662.25 217.35L662.25 167.35zM748.85 217.35L792.16 242.35L792.16 292.35L748.85 317.35L705.55 292.35L705.55 242.35zM705.55 292.35L748.85 317.35L748.85 367.35L705.55 392.35L662.25 367.35L662.25 317.35zM792.16 142.35L835.46 167.35L835.46 217.35L792.16 242.35L748.85 217.35L748.85 167.35zM792.16 292.35L835.46 317.35L835.46 367.35L792.16 392.35L748.85 367.35L748.85 317.35zM835.46 367.35L878.76 392.35L878.76 442.35L835.46 467.35L792.16 442.35L792.16 392.35zM878.76 -7.65L922.06 17.35L922.06 67.35L878.76 92.35L835.46 67.35L835.46 17.35zM922.06 67.35L965.37 92.35L965.37 142.35L922.06 167.35L878.76 142.35L878.76 92.35zM878.76 142.35L922.06 167.35L922.06 217.35L878.76 242.35L835.46 217.35L835.46 167.35zM1008.67 217.35L1051.97 242.35L1051.97 292.35L1008.67 317.35L965.37 292.35L965.37 242.35zM965.37 442.35L1008.67 467.35L1008.67 517.35L965.37 542.35L922.06 517.35L922.06 467.35zM1008.67 517.35L1051.97 542.35L1051.97 592.35L1008.67 617.35L965.37 592.35L965.37 542.35zM1138.58 -7.65L1181.88 17.35L1181.88 67.35L1138.58 92.35L1095.27 67.35L1095.27 17.35zM1181.88 217.35L1225.18 242.35L1225.18 292.35L1181.88 317.35L1138.58 292.35L1138.58 242.35zM1138.58 292.35L1181.88 317.35L1181.88 367.35L1138.58 392.35L1095.27 367.35L1095.27 317.35zM1225.18 292.35L1268.48 317.35L1268.48 367.35L1225.18 392.35L1181.88 367.35L1181.88 317.35zM1225.18 442.35L1268.48 467.35L1268.48 517.35L1225.18 542.35L1181.88 517.35L1181.88 467.35zM1268.48 517.35L1311.79 542.35L1311.79 592.35L1268.48 617.35L1225.18 592.35L1225.18 542.35zM1311.79 142.35L1355.09 167.35L1355.09 217.35L1311.79 242.35L1268.48 217.35L1268.48 167.35zM1355.09 217.35L1398.39 242.35L1398.39 292.35L1355.09 317.35L1311.79 292.35L1311.79 242.35zM1355.09 517.35L1398.39 542.35L1398.39 592.35L1355.09 617.35L1311.79 592.35L1311.79 542.35zM1441.69 67.35L1485 92.35L1485 142.35L1441.69 167.35L1398.39 142.35L1398.39 92.35zM1398.39 142.35L1441.69 167.35L1441.69 217.35L1398.39 242.35L1355.09 217.35L1355.09 167.35zM1398.39 292.35L1441.69 317.35L1441.69 367.35L1398.39 392.35L1355.09 367.35L1355.09 317.35zM1441.69 367.35L1485 392.35L1485 442.35L1441.69 467.35L1398.39 442.35L1398.39 392.35zM1441.69 517.35L1485 542.35L1485 592.35L1441.69 617.35L1398.39 592.35L1398.39 542.35z" stroke="rgba(6, 80, 156, 0.93)" stroke-width="2"></path></g><defs><mask id="SvgjsMask1001"><rect width="1440" height="560" fill="#ffffff"></rect></mask></defs></svg>